# Blender v3.6.0 OBJ File: '3plane.blend'
# www.blender.org
mtllib 3plane.mtl
o Plane.004
v -0.999888 0.999998 1.000000
v -0.999888 0.999998 -1.000000
v -0.500112 0.750002 1.000000
v -0.500112 0.750002 -1.000000
v 0.999775 -0.999998 1.000000
v 0.999775 -0.999998 -1.000000
v 0.499999 -0.750002 1.000000
v 0.499999 -0.750002 -1.000000
vt 0.000000 0.250000
vt 0.000000 0.000000
vt 1.000000 0.000000
vt 1.000000 0.250000
vt 0.000000 0.750000
vt 1.000000 0.750000
vt 1.000000 1.000000
vt 0.000000 1.000000
vn -0.4474 -0.8943 0.0000
vn -0.8320 -0.5547 0.0000
usemtl None
# s off
f 3/1/1 1/2/1 2/3/1 4/4/1
f 7/5/2 3/1/2 4/4/2 8/6/2
f 7/5/1 8/6/1 6/7/1 5/8/1
